<?xml version="1.0" encoding="UTF-8" standalone="no"?>
<!-- Created with Inkscape (http://www.inkscape.org/) -->

<svg
   xmlns:dc="http://purl.org/dc/elements/1.1/"
   xmlns:cc="http://creativecommons.org/ns#"
   xmlns:rdf="http://www.w3.org/1999/02/22-rdf-syntax-ns#"
   xmlns:svg="http://www.w3.org/2000/svg"
   xmlns="http://www.w3.org/2000/svg"
   xmlns:sodipodi="http://sodipodi.sourceforge.net/DTD/sodipodi-0.dtd"
   xmlns:inkscape="http://www.inkscape.org/namespaces/inkscape"
   width="190.5mm"
   height="35.392845mm"
   viewBox="0 0 190.5 35.392845"
   version="1.1"
   id="svg8"
   inkscape:version="0.92.3 (2405546, 2018-03-11)">
  <defs
     id="defs2" />
  <sodipodi:namedview
     id="base"
     pagecolor="#ffffff"
     bordercolor="#666666"
     borderopacity="1.0"
     inkscape:pageopacity="0.0"
     inkscape:pageshadow="2"
     inkscape:zoom="0.35"
     inkscape:cx="-163.99325"
     inkscape:cy="65.624273"
     inkscape:document-units="mm"
     inkscape:current-layer="layer1"
     showgrid="false"
     fit-margin-top="0"
     fit-margin-left="0"
     fit-margin-right="0"
     fit-margin-bottom="0"
     inkscape:window-width="1920"
     inkscape:window-height="1017"
     inkscape:window-x="-8"
     inkscape:window-y="-8"
     inkscape:window-maximized="1" />
  <metadata
     id="metadata5">
    <rdf:RDF>
      <cc:Work
         rdf:about="">
        <dc:format>image/svg+xml</dc:format>
        <dc:type
           rdf:resource="http://purl.org/dc/dcmitype/StillImage" />
        <dc:title></dc:title>
      </cc:Work>
    </rdf:RDF>
  </metadata>
  <g
     inkscape:label="Capa 1"
     inkscape:groupmode="layer"
     id="layer1"
     transform="translate(-9.75,-130.80358)">
    <g
       transform="translate(477.79793,99.57193)"
       id="layer1-6"
       inkscape:label="Capa 1"
       style="fill:#ffffff">
      <path
         inkscape:connector-curvature="0"
         id="path4529"
         d="m -468.04793,66.127813 c 0,-0.465132 0.0307,-0.493284 0.7162,-0.657744 1.17338,-0.281491 2.00639,-0.954472 2.38123,-1.923793 0.24354,-0.629749 0.24021,-27.67275 -0.003,-28.345342 -0.34328,-0.947483 -1.32325,-1.654866 -2.70096,-1.949644 -0.33735,-0.07218 -0.393,-0.154533 -0.393,-0.581564 v -0.497459 h 4.0015 4.0015 V 47.50972 c 0,17.165292 -0.0567,16.202734 1.01124,17.16755 0.36273,0.32771 0.86228,0.589995 1.41788,0.744468 0.82942,0.2306 0.85783,0.254295 0.85783,0.715268 v 0.47675 h -5.64497 -5.64498 v -0.485943 z m 50.22415,0.263143 c -3.59438,-0.604227 -6.9085,-2.300845 -9.44066,-4.833009 -2.20649,-2.206501 -3.60395,-4.691435 -4.43014,-7.877611 -0.38186,-1.472581 -0.40774,-1.752819 -0.40924,-4.430236 -0.002,-2.262474 0.0539,-3.111394 0.26461,-4.072953 1.49206,-6.808624 6.66197,-11.935834 13.52421,-13.412514 2.94777,-0.63434 5.03424,-0.694565 7.71718,-0.222774 4.279,0.752441 7.53849,2.971872 9.03728,6.153564 0.39893,0.846905 0.46163,1.134354 0.46378,2.126388 0.003,1.426475 -0.40495,2.339146 -1.33954,2.995994 -0.54259,0.381357 -0.72778,0.429991 -1.63565,0.429488 -0.82481,0 -1.14322,-0.06882 -1.63823,-0.351833 -0.88738,-0.507316 -1.16814,-1.059626 -1.40356,-2.761019 -0.27607,-1.995264 -0.52376,-2.774825 -1.20644,-3.797155 -1.01096,-1.513923 -2.54837,-2.595359 -4.4213,-3.110005 -1.3444,-0.369426 -4.10857,-0.331897 -5.64497,0.07663 -4.33317,1.152216 -7.21845,4.260552 -8.22171,8.857318 -1.34551,6.164912 0.10591,12.176653 3.92748,16.2675 1.46778,1.571221 2.66611,2.471415 4.43714,3.333265 3.57205,1.738306 7.31787,2.10616 10.67424,1.048262 2.01299,-0.634464 3.41855,-1.511552 5.2603,-3.282498 l 0.92893,-0.89321 0.34257,0.278137 c 0.41435,0.336407 0.35596,0.507775 -0.60973,1.788981 -2.22679,2.954366 -6.14151,5.240223 -9.86001,5.757418 -1.49296,0.207661 -4.89425,0.17098 -6.31654,-0.06813 z m 41.06563,-1.027672 c -0.0412,-1.246296 -0.0426,-1.250623 -0.43429,-1.295686 -0.82063,-0.09442 -0.34721,-0.312058 0.67883,-0.312058 1.02604,0 1.49946,0.217637 0.67882,0.312058 -0.39168,0.04505 -0.39314,0.04937 -0.43429,1.295686 -0.0319,0.966464 -0.0875,1.250472 -0.24453,1.250472 -0.15707,0 -0.21262,-0.284008 -0.24454,-1.250472 z m 1.88801,-0.178638 c 0,-1.396536 0.008,-1.429106 0.32916,-1.429106 0.28142,0 0.37565,0.144438 0.64998,0.996204 0.17647,0.547918 0.37561,1.030042 0.44253,1.071401 0.0669,0.04137 0.29751,-0.406938 0.51243,-0.996204 0.33601,-0.92127 0.43813,-1.071401 0.72889,-1.071401 0.33303,0 0.33814,0.0216 0.33814,1.429106 0,1.175042 -0.0381,1.42911 -0.21436,1.42911 -0.17037,0 -0.21542,-0.212651 -0.21943,-1.036103 -0.005,-0.970536 -0.018,-1.013493 -0.20921,-0.678825 -0.11228,0.196501 -0.3081,0.662745 -0.43516,1.036103 -0.34372,1.010036 -0.64676,0.916841 -1.04561,-0.321553 -0.17721,-0.550203 -0.3828,-1.000374 -0.45687,-1.000374 -0.0741,0 -0.13466,0.450171 -0.13466,1.000374 0,0.571646 -0.0612,1.000378 -0.14292,1.000378 -0.0857,0 -0.14291,-0.571646 -0.14291,-1.42911 z m -18.86421,0.714555 c 0,-0.536273 0.0258,-0.571641 0.41688,-0.571641 1.11263,0 2.60166,-1.181373 2.82626,-2.242311 0.0634,-0.299457 0.11526,-6.557418 0.11526,-13.906603 V 35.816494 l -0.30846,-0.571647 c -0.16965,-0.314402 -0.49211,-0.745991 -0.71658,-0.959102 -0.43478,-0.412755 -1.43392,-0.827281 -1.99405,-0.827281 -0.30058,0 -0.33931,-0.06524 -0.33931,-0.571641 v -0.571641 h 3.9984 3.99839 l 0.0388,15.398628 0.0388,15.398635 0.3968,0.675022 c 0.45429,0.772831 1.36791,1.383135 2.24709,1.501063 0.55513,0.07446 0.57159,0.09258 0.57159,0.629495 v 0.552817 h -5.64498 -5.64497 z m -45.95053,0.22031 c -2.1982,-0.399392 -3.78978,-1.616435 -4.87836,-3.730367 -0.32133,-0.624007 -1.01603,-2.324271 -1.54379,-3.77839 -1.35158,-3.72401 -1.79875,-4.607784 -2.87704,-5.686121 -1.53326,-1.533329 -3.26461,-2.10133 -6.12241,-2.008578 l -1.5089,0.04899 0.002,-0.928919 0.002,-0.928919 3.03627,-0.0188 c 1.66996,-0.01026 3.41977,-0.09108 3.88846,-0.179411 3.40398,-0.64154 5.27134,-3.284518 5.26196,-7.447507 -0.004,-1.749168 -0.28236,-3.077538 -0.89112,-4.251592 -1.37182,-2.645711 -3.22827,-3.322235 -9.11733,-3.322565 l -2.18079,-1.13e-4 v -0.87813 -0.878114 l 3.82286,0.103026 c 4.27991,0.115346 5.6168,0.29244 7.47411,0.990073 3.04085,1.142185 4.85779,2.924323 5.62996,5.522113 0.36074,1.213641 0.43672,3.301365 0.16644,4.57314 -0.61606,2.898791 -2.36846,4.684732 -5.88711,5.999825 -0.94993,0.355047 -1.7538,0.705876 -1.78638,0.779621 -0.0326,0.07375 0.32365,0.288005 0.79159,0.476118 1.82776,0.734762 3.32209,2.107564 4.21075,3.868323 0.22461,0.445039 0.81027,1.934585 1.30147,3.310098 2.0669,5.788131 2.36984,6.425155 3.33571,7.014372 0.24635,0.150288 0.65692,0.312749 0.91238,0.361021 0.41099,0.07767 0.46445,0.14137 0.46445,0.553352 0,0.426988 -0.0445,0.472937 -0.53591,0.554179 -0.78994,0.130561 -1.83532,0.08949 -2.97013,-0.116702 z m 83.70638,-0.938349 c -0.63865,-0.389378 -1.02152,-1.271878 -1.02152,-2.354541 0,-1.941283 1.18418,-3.006602 3.03154,-2.727223 0.91971,0.139096 1.04523,0.256024 0.83075,0.773863 l -0.17856,0.43106 -0.57381,-0.202448 c -0.6913,-0.243904 -1.11924,-0.156688 -1.56636,0.319247 -0.29008,0.308773 -0.3351,0.500802 -0.3351,1.429381 0,0.998158 0.0279,1.096668 0.40098,1.4176 0.43318,0.372612 1.21235,0.457959 1.87629,0.205538 0.34853,-0.132522 0.36659,-0.115676 0.36659,0.341986 0,0.586387 -0.14736,0.655017 -1.40507,0.654314 -0.70338,0 -1.07678,-0.07603 -1.42573,-0.288777 z m 6.31239,0.04748 c -0.73936,-0.36861 -1.12357,-1.214429 -1.12357,-2.473457 0,-1.336116 0.30194,-1.932198 1.21257,-2.393754 1.23577,-0.626379 2.88961,-0.238049 3.49834,0.821432 0.40787,0.70991 0.40542,2.442334 -0.004,3.144153 -0.48368,0.828167 -1.09551,1.144946 -2.19092,1.134327 -0.55195,-0.0054 -1.12962,-0.101913 -1.39196,-0.232701 z m 2.27993,-0.985515 c 0.67029,-0.67028 0.63859,-2.369772 -0.0559,-2.998295 -0.39489,-0.35738 -1.29872,-0.357077 -1.69393,0 -0.6954,0.629333 -0.73936,2.365603 -0.0767,3.028294 0.48141,0.48139 1.32876,0.467217 1.82654,-0.03057 z m 4.24223,-1.416488 V 60.18279 h 0.75304 0.75302 l 1.14054,1.965022 1.14053,1.965022 0.0398,-1.965022 0.0398,-1.965022 h 0.4247 0.4247 v 2.643847 2.643848 h -0.68354 -0.68353 l -0.95335,-1.679199 c -1.47421,-2.596602 -1.38541,-2.578356 -1.39071,-0.285823 l -0.004,1.965022 h -0.50019 -0.50018 z m 7.68144,2.545338 c -0.18392,-0.04807 -0.25009,-0.211906 -0.25009,-0.619232 V 64.19888 l 0.4956,0.207066 c 0.7176,0.299839 1.60346,0.271628 1.77916,-0.05665 0.20139,-0.376328 -0.14454,-0.809133 -0.98856,-1.236833 -0.85119,-0.431336 -1.14328,-0.825224 -1.14328,-1.541751 0,-0.732763 0.2103,-1.085137 0.79292,-1.32857 0.58894,-0.246064 1.20584,-0.257142 1.94746,-0.03495 0.42246,0.126575 0.53563,0.222255 0.46481,0.393008 -0.0515,0.124128 -0.12323,0.327851 -0.15945,0.452698 -0.0587,0.202145 -0.132,0.205246 -0.66948,0.0283 -0.71889,-0.23666 -1.37589,-0.06375 -1.37589,0.362123 0,0.326738 0.31152,0.612086 1.1021,1.009523 0.87257,0.438665 1.18447,0.828896 1.18447,1.481985 0,1.104457 -0.58935,1.545607 -2.02937,1.519097 -0.49517,-0.0091 -1.01284,-0.04597 -1.1504,-0.08193 z m 6.5757,-0.125203 c -0.69809,-0.37877 -0.82354,-0.844318 -0.82354,-3.056133 V 60.18279 h 0.48912 0.48911 l 0.0468,1.914746 c 0.0541,2.215332 0.18762,2.515485 1.11863,2.515485 0.93101,0 1.06448,-0.300153 1.11863,-2.515485 l 0.0468,-1.914746 h 0.48911 0.48911 v 2.007849 c 0,2.233367 -0.12642,2.687437 -0.85279,3.063063 -0.54096,0.279736 -2.09024,0.275636 -2.61099,-0.0069 z m 6.322,-2.420135 V 60.18279 h 0.57164 0.57165 v 2.215115 2.215116 h 1.07183 1.07183 v 0.428732 0.428732 h -1.64348 -1.64347 z m 6.28807,0.428733 v -2.215116 h -0.71455 c -0.69868,0 -0.71456,-0.0096 -0.71456,-0.428732 V 60.18279 h 2.00076 2.00075 v 0.421257 c 0,0.40744 -0.0246,0.422688 -0.75029,0.464462 l -0.75028,0.04321 -0.0394,2.179385 -0.0394,2.179391 h -0.49646 -0.49647 z m 5.00188,-0.428733 V 60.18279 h 0.50018 0.50019 v 2.643847 2.643848 h -0.50019 -0.50018 z m 4.0015,0 V 60.18279 h 0.68471 0.6847 l 1.04265,1.785627 c 0.57346,0.982095 1.10137,1.821924 1.17314,1.866269 0.0762,0.0471 0.13048,-0.696331 0.13048,-1.785627 V 60.18279 h 0.50019 0.50018 v 2.643847 2.643848 h -0.75028 -0.75028 l -1.05234,-1.85894 c -0.57877,-1.02241 -1.10933,-1.894167 -1.17901,-1.937226 -0.0713,-0.04402 -0.12668,0.769519 -0.12668,1.859442 v 1.937723 h -0.42873 -0.42873 v -2.643847 z m 8.33831,2.350295 c -1.22301,-0.783509 -1.38206,-3.261421 -0.28008,-4.363405 0.7049,-0.704898 1.93985,-0.952247 3.11909,-0.62472 0.50992,0.141607 0.52403,0.162359 0.36408,0.535112 -0.0915,0.213283 -0.17905,0.408099 -0.1945,0.432907 -0.0154,0.02485 -0.29602,-0.02701 -0.62346,-0.115189 -1.44828,-0.389988 -2.52893,0.761504 -2.22668,2.372608 0.14666,0.781818 0.64371,1.198776 1.42903,1.198776 h 0.6496 v -0.643096 c 0,-0.639698 -0.003,-0.643101 -0.50019,-0.643101 -0.46048,0 -0.50018,-0.03403 -0.50018,-0.428732 V 62.46936 h 1.07183 1.07183 v 1.411243 1.411243 l -0.4466,0.08932 c -0.99016,0.19803 -2.46626,0.09528 -2.93377,-0.204236 z m -57.78543,-12.282589 v -2.715308 h 0.5002 0.50018 v 2.715308 2.715302 h -0.50018 -0.5002 z m 4.00151,0 v -2.715308 l 0.67882,0.0043 0.67883,0.0043 1.05182,1.854927 c 0.5785,1.020207 1.10906,1.890294 1.17901,1.933537 0.0719,0.04445 0.12719,-0.763302 0.12719,-1.859128 v -1.937724 h 0.50019 0.50019 v 2.722778 2.722761 l -0.74296,-0.04316 -0.74295,-0.04321 -1.02156,-1.757356 c -0.56185,-0.966561 -1.09571,-1.831533 -1.18633,-1.922152 -0.12444,-0.124447 -0.16479,0.314575 -0.16479,1.793087 v 1.957876 h -0.42873 -0.42873 v -2.715302 z m 8.57464,0.500186 v -2.215115 h -0.71455 -0.71456 v -0.500187 -0.500192 h 2.00075 2.00076 v 0.500192 0.500187 h -0.78601 -0.78601 v 2.215115 2.215116 h -0.50019 -0.50019 z m 5.00187,-0.500186 v -2.715308 h 1.50057 1.50056 v 0.422202 c 0,0.421786 -0.002,0.422245 -0.96464,0.464462 l -0.96465,0.04224 -0.044,0.607366 -0.044,0.607371 h 0.93714 0.93714 v 0.421915 c 0,0.41773 -0.009,0.422332 -0.8932,0.464462 l -0.89319,0.04256 -0.0435,0.678826 -0.0435,0.678825 h 1.00821 1.0082 v 0.500187 0.500186 h -1.50056 -1.50056 z m 5.71644,-0.01982 V 50.1394 l 1.25517,0.07157 c 1.29254,0.0737 2.06663,0.337827 2.22882,0.760488 0.0488,0.127229 0.0888,0.521819 0.0888,0.876872 0,0.53677 -0.0742,0.71482 -0.44036,1.056882 l -0.44036,0.411367 0.78979,1.146528 0.7898,1.146545 h -0.62047 c -0.61787,0 -0.62326,-0.0043 -1.29345,-1.07979 -0.53865,-0.86421 -0.73419,-1.071071 -0.97946,-1.036103 -0.27647,0.03943 -0.31053,0.14494 -0.34841,1.079789 l -0.042,1.036104 h -0.49393 -0.49392 z m 2.28657,-0.551824 c 0.50368,-0.503687 0.25661,-1.03283 -0.56669,-1.213651 -0.60521,-0.132922 -0.71951,-0.0069 -0.71951,0.79335 v 0.706124 h 0.50019 c 0.30964,0 0.60907,-0.108885 0.78601,-0.285823 z m 4.28732,0.571647 V 50.17904 h 0.70173 0.70172 l 1.11057,1.929298 c 0.61082,1.061111 1.14715,1.929324 1.19184,1.929368 0.0447,4.3e-5 0.0589,-0.868143 0.0315,-1.929298 l -0.0497,-1.929368 h 0.5142 0.51421 v 2.715308 2.715302 h -0.69812 -0.6981 l -1.0969,-1.929292 c -0.60329,-1.061117 -1.14124,-1.929384 -1.19545,-1.929498 -0.0542,-1.13e-4 -0.0775,0.868067 -0.0517,1.929292 l 0.0468,1.929498 h -0.51126 -0.51127 z m 7.15331,2.536663 c 0.004,-0.09825 0.40621,-1.304059 0.89319,-2.679578 l 0.88542,-2.500933 0.71875,-0.04208 0.71874,-0.04213 0.3952,1.185391 c 0.21735,0.651954 0.64264,1.876716 0.94508,2.721676 l 0.54989,1.53629 h -0.60915 c -0.60001,0 -0.61186,-0.0097 -0.78922,-0.643096 l -0.18005,-0.643101 h -1.03629 -1.0363 l -0.16193,0.643101 c -0.15802,0.627534 -0.17573,0.643096 -0.73152,0.643096 -0.36454,0 -0.56679,-0.06431 -0.56181,-0.178639 z m 3.13626,-2.235797 c 0,-0.190668 -0.57486,-2.015795 -0.63492,-2.015795 -0.0514,0 -0.65128,1.896036 -0.65128,2.058654 0,0.04678 0.2894,0.08501 0.6431,0.08501 0.35371,0 0.6431,-0.05754 0.6431,-0.127866 z m 4.71606,0.19932 v -2.215115 h -0.71456 -0.71455 V 50.679232 50.17904 h 2.00075 2.00075 v 0.500192 0.500187 h -0.71456 -0.71455 v 2.215115 2.215116 h -0.57164 -0.57164 z m 5.00187,-0.500186 V 50.17904 h 0.57164 0.57164 v 2.715308 2.715302 h -0.57164 -0.57164 z m 5.03167,2.484745 c -0.66309,-0.337784 -0.98859,-0.810078 -1.17408,-1.70357 -0.30496,-1.468962 0.14518,-2.742768 1.14713,-3.246157 0.74453,-0.374071 2.11132,-0.338027 2.71933,0.07171 0.78507,0.529051 1.06496,1.158044 1.06496,2.393268 0,1.189156 -0.25611,1.807135 -0.96922,2.338676 -0.54186,0.403892 -2.11968,0.486554 -2.78812,0.146069 z m 2.14438,-1.041261 c 0.43136,-0.38543 0.46395,-0.478668 0.4667,-1.335247 0.003,-1.030442 -0.21644,-1.57156 -0.734,-1.807378 -0.84776,-0.386272 -1.65261,0.04029 -1.91506,1.014995 -0.49214,1.827687 0.94735,3.231098 2.18236,2.12763 z m 4.39972,-1.443484 V 50.17904 l 0.67883,0.0038 0.67882,0.0038 0.95698,1.675245 c 1.48111,2.592756 1.3912,2.574608 1.3965,0.281859 l 0.004,-1.965109 h 0.50018 0.50019 v 2.722778 2.722767 l -0.74431,-0.04321 -0.7443,-0.04321 -0.96298,-1.679847 c -1.52527,-2.660765 -1.407,-2.637118 -1.407,-0.281248 v 2.032549 h -0.42873 -0.42873 z m 7.06455,2.474342 c 0.0547,-0.142569 0.48991,-1.368572 0.96709,-2.724436 l 0.86758,-2.465214 h 0.6812 c 0.61327,0 0.6954,0.03916 0.82377,0.393008 0.48612,1.339945 1.74322,4.939567 1.74322,4.991582 0,0.03435 -0.2716,0.04267 -0.60355,0.01853 -0.57026,-0.04154 -0.61234,-0.07547 -0.76272,-0.615587 l -0.15916,-0.571646 -1.00976,-0.0417 -1.00977,-0.0417 -0.20365,0.613361 c -0.19368,0.583335 -0.23374,0.615543 -0.8187,0.658203 -0.54409,0.0397 -0.60358,0.01496 -0.51555,-0.214363 z m 3.18825,-2.224249 c -0.0371,-0.09825 -0.17434,-0.548421 -0.3051,-1.000379 -0.13076,-0.451952 -0.29018,-0.821734 -0.35425,-0.821734 -0.0641,0 -0.24781,0.45017 -0.40831,1.000373 l -0.29182,1.000379 h 0.71343 c 0.51137,0 0.69433,-0.05061 0.64605,-0.178639 z m 4.3241,-0.250093 V 50.17904 h 0.50018 0.50019 v 2.215121 2.215115 h 1.07183 1.07183 v 0.500187 0.500187 h -1.57202 -1.57201 z m -91.93782,0.607371 c -0.0347,-0.05895 -0.10688,-0.311507 -0.1604,-0.561228 -0.12604,-0.587893 -0.69369,-1.148143 -1.34731,-1.329699 -0.29041,-0.08066 -2.26195,-0.144307 -4.48405,-0.14475 l -3.96578,-5.41e-4 V 50.1793 48.893103 h 4.15855 c 3.50081,0 4.23409,-0.03587 4.63622,-0.226684 0.54308,-0.257698 0.84962,-0.663231 1.02987,-1.362425 0.0873,-0.338568 0.21823,-0.496757 0.43765,-0.528771 l 0.31311,-0.04564 v 3.43979 c 0,3.309667 -0.0104,3.439802 -0.27739,3.439802 -0.15256,0 -0.30577,-0.04823 -0.34047,-0.107179 z m 18.49665,-14.124229 c -1.04146,-0.280076 -2.12097,-0.886859 -2.52865,-1.421344 -1.07953,-1.415332 -1.03519,-3.195244 0.11057,-4.438235 1.39377,-1.512054 4.11093,-2.010183 6.38062,-1.169738 0.70587,0.261366 1.73894,1.001243 1.73894,1.245405 0,0.05801 -0.38015,0.22057 -0.84476,0.361253 -0.82728,0.250477 -0.85315,0.249878 -1.25047,-0.029 -0.66658,-0.467859 -1.44417,-0.652073 -2.42145,-0.573613 -2.98329,0.239459 -3.8305,3.219162 -1.27128,4.471276 0.70707,0.34593 0.91023,0.380417 1.89656,0.321921 0.65818,-0.03905 1.30678,-0.168506 1.60482,-0.320333 0.53898,-0.274578 1.2862,-0.917333 1.2862,-1.106386 0,-0.0639 -0.77172,-0.116172 -1.71493,-0.116172 h -1.71493 v -0.643101 -0.643095 h 2.71531 2.7153 v 0.331335 c 0,0.681002 -0.45888,1.844879 -0.93529,2.372203 -1.14915,1.271964 -3.78098,1.891585 -5.76656,1.357624 z m 22.13621,0.03073 c -1.00347,-0.218901 -2.22546,-0.886837 -2.65661,-1.452089 -0.86607,-1.135471 -1.01756,-2.522149 -0.40898,-3.743422 1.27106,-2.550695 5.82494,-3.074135 8.33918,-0.958545 0.69455,0.584421 1.0503,1.402158 1.04974,2.413021 -0.002,1.953663 -1.19213,3.253104 -3.41315,3.723669 -1.16012,0.245794 -1.84432,0.249878 -2.91018,0.01739 z m 2.87191,-1.452888 c 2.34512,-0.827411 2.25469,-3.674609 -0.1422,-4.477125 -0.26718,-0.08946 -0.88157,-0.162646 -1.36533,-0.162646 -2.11986,0 -3.50644,1.555643 -2.87059,3.22062 0.25553,0.669065 0.83296,1.205598 1.57767,1.46591 0.64395,0.225096 2.09876,0.200801 2.80045,-0.04678 z m 8.13222,1.4538 c -1.04081,-0.22583 -1.98542,-0.764901 -2.38822,-1.362928 -0.31209,-0.463344 -0.32709,-0.609024 -0.32709,-3.179764 v -2.694166 h 0.85747 0.85746 v 2.473986 c 0,2.33099 0.0177,2.492993 0.30606,2.802506 0.4643,0.498372 1.15654,0.725758 2.20944,0.725758 1.23211,0 1.98902,-0.234456 2.42338,-0.750679 0.33975,-0.403751 0.34882,-0.477453 0.34882,-2.833046 v -2.418525 h 0.85747 0.85746 l -0.003,2.608123 c -0.002,2.435242 -0.0235,2.645019 -0.32155,3.164829 -0.75067,1.30926 -3.32833,1.973799 -5.67835,1.463906 z m -24.58065,-3.664086 v -3.572772 l 3.32268,0.0032 c 3.79442,0.0038 4.22347,0.09824 4.82002,1.063489 0.83153,1.345433 0.34526,2.899185 -1.06862,3.414566 -0.0786,0.02863 0.2583,0.639838 0.74865,1.358207 l 0.89157,1.306133 h -0.99439 -0.9944 l -0.71111,-1.053836 c -1.08734,-1.611347 -0.94245,-1.533778 -2.77793,-1.487375 l -1.59299,0.04029 -0.0413,1.250472 -0.0413,1.250467 h -0.78044 -0.78045 z m 6.50894,-0.636598 c 0.42149,-0.4215 0.44446,-0.787965 0.0778,-1.241139 -0.26671,-0.329666 -0.32636,-0.337384 -2.60811,-0.337384 h -2.33515 l -0.0439,0.768974 c -0.0241,0.422931 -0.01,0.857021 0.0312,0.964649 0.0591,0.15403 0.54877,0.195674 2.30119,0.195674 2.17296,0 2.23446,-0.0084 2.57687,-0.350774 z m 26.50344,0.636598 v -3.572772 h 3.32812 c 3.16752,0 3.35883,0.0155 3.96462,0.321553 0.86612,0.437547 1.28205,1.093849 1.28137,2.021882 0,0.827525 -0.33525,1.496709 -0.95036,1.9004 -0.33253,0.218242 -0.81117,0.268831 -3.11513,0.32931 l -2.72223,0.07145 -0.0413,1.250472 -0.0413,1.250467 h -0.85189 -0.85191 z m 6.33319,-0.450127 c 0.17169,-0.09037 0.35941,-0.235062 0.41716,-0.321548 0.20343,-0.304674 0.10593,-0.902053 -0.19114,-1.171197 -0.26858,-0.24332 -0.53814,-0.272249 -2.53667,-0.272249 h -2.23616 l -0.0422,0.964648 -0.0422,0.964649 h 2.15959 c 1.35091,0 2.27647,-0.06152 2.47173,-0.164303 z m -63.70163,1.240333 c -0.14664,-0.781689 -0.69022,-1.315434 -1.52115,-1.493646 -0.43903,-0.09415 -2.74335,-0.154025 -5.92746,-0.154025 h -5.20921 v -1.286196 -1.286197 h 6.71681 6.7168 v 2.358024 2.35803 h -0.34137 c -0.27645,0 -0.35908,-0.09434 -0.43442,-0.49599 z"
         style="fill:#ffffff;stroke-width:0.14291073" />
    </g>
  </g>
</svg>
